<svg fill="none" viewBox="0 0 26 26" xmlns="http://www.w3.org/2000/svg"><path d="M13 0C5.82 0 0 5.823 0 13c0 7.181 5.82 13 13 13s13-5.819 13-13c0-7.177-5.82-13-13-13zm0 23.484A10.478 10.478 0 012.516 13 10.48 10.48 0 0113 2.516 10.48 10.48 0 0123.484 13 10.478 10.478 0 0113 23.484zm2.202-5.452c0 1.214-.988 2.202-2.202 2.202s-2.202-.988-2.202-2.202.988-2.201 2.202-2.201 2.202.987 2.202 2.201zM10.936 6.95l.357 7.13a.629.629 0 00.628.597h2.158a.629.629 0 00.628-.598l.357-7.129a.629.629 0 00-.628-.66h-2.871a.63.63 0 00-.629.66z" fill="#F9A1A1"/></svg>