<svg width="28" height="22" fill="none" xmlns="http://www.w3.org/2000/svg"><path d="M14.877 19.247v-2.956h-5.25C8.176 16.291 7 15.06 7 13.541V8.468c0-1.518 1.176-2.75 2.625-2.75h5.251V2.76c0-2.44 2.828-3.678 4.48-1.942l7.876 8.243c1.023 1.072 1.023 2.813 0 3.89L19.357 21.2c-1.647 1.712-4.48.492-4.48-1.954zM25.38 11l-7.876-8.25v5.712H9.626v5.075h7.877v5.711L25.379 11zM5.25 21.996h4.594c.361 0 .656-.31.656-.687v-1.375c0-.378-.295-.688-.656-.688H5.251c-1.45 0-2.626-1.231-2.626-2.75V5.5c0-1.518 1.176-2.75 2.626-2.75h4.594c.361 0 .656-.309.656-.687V.687c0-.378-.295-.687-.656-.687H5.251C2.35 0 0 2.463 0 5.5v10.998c0 3.036 2.352 5.499 5.25 5.499z" fill="#fff"/></svg>