<svg width="28" height="20" fill="none" xmlns="http://www.w3.org/2000/svg"><path d="M23.804 8.571c1.934 0 3.5-1.598 3.5-3.571s-1.566-3.571-3.5-3.571-3.5 1.598-3.5 3.571 1.566 3.571 3.5 3.571zm0-5c.77 0 1.4.643 1.4 1.429s-.63 1.429-1.4 1.429c-.77 0-1.4-.643-1.4-1.429s.63-1.429 1.4-1.429zm-19.603 5c1.934 0 3.5-1.598 3.5-3.571s-1.566-3.571-3.5-3.571S.7 3.027.7 5s1.566 3.571 3.5 3.571zm0-5c.77 0 1.4.643 1.4 1.429s-.63 1.429-1.4 1.429c-.77 0-1.4-.643-1.4-1.429s.63-1.429 1.4-1.429zm17.345 9.416c-1.203-1.822-3.531-2.5-5.592-1.862-.622.192-1.274.3-1.956.3a6.592 6.592 0 01-1.956-.3c-2.061-.638-4.389.036-5.592 1.862a5.189 5.189 0 00-.858 2.87v2c0 1.183.94 2.143 2.1 2.143h12.602c1.16 0 2.1-.96 2.1-2.143v-2a5.113 5.113 0 00-.848-2.87zm-1.243 4.87H7.701v-2c0-1.625 1.278-2.955 2.862-3a8.764 8.764 0 003.44.714 8.764 8.764 0 003.439-.714c1.584.045 2.861 1.37 2.861 3v2zM24.33 10h-1.05c-.757 0-1.462.237-2.048.638.586.451 1.102.992 1.505 1.617.17-.063.35-.112.538-.112h1.05c.867 0 1.576.723 1.576 1.607 0 .59.472 1.071 1.05 1.071.577 0 1.05-.482 1.05-1.071.004-2.067-1.645-3.75-3.671-3.75zm-10.327 0c2.709 0 4.9-2.237 4.9-5s-2.191-5-4.9-5c-2.708 0-4.9 2.237-4.9 5s2.192 5 4.9 5zm0-7.857c1.545 0 2.8 1.281 2.8 2.857 0 1.576-1.255 2.857-2.8 2.857-1.544 0-2.8-1.281-2.8-2.857 0-1.576 1.256-2.857 2.8-2.857zm-7.228 8.495A3.611 3.611 0 004.726 10h-1.05C1.65 10 0 11.683 0 13.75c0 .59.473 1.071 1.05 1.071.578 0 1.05-.482 1.05-1.071 0-.884.71-1.607 1.576-1.607h1.05c.192 0 .372.049.538.111a6.569 6.569 0 011.51-1.616z" fill="#2C2C2C"/></svg>