<svg width="27" height="23" fill="none" xmlns="http://www.w3.org/2000/svg"><path d="M26.729 11.058L15.18.666A2.493 2.493 0 0013.5 0c-.615 0-1.21.236-1.682.666L.27 11.058a.812.812 0 00-.184.25.881.881 0 00.09.908l.48.631a.707.707 0 001.056.103l1.288-1.158v9.565c0 .435.16.853.44 1.16.281.308.662.482 1.06.483h6a1.44 1.44 0 001.06-.483 1.73 1.73 0 00.44-1.16v-5.34h3v5.34c0 .435.16.853.44 1.16.281.308.662.482 1.06.483h6a1.44 1.44 0 001.056-.478c.28-.305.44-.72.444-1.153V11.79l1.29 1.162c.153.14.35.207.548.188a.732.732 0 00.508-.29l.48-.632a.892.892 0 00.089-.91.812.812 0 00-.185-.25zm-4.987 9.478h-4.493v-5.34a1.73 1.73 0 00-.44-1.16 1.441 1.441 0 00-1.06-.483h-4.5a1.44 1.44 0 00-1.06.483 1.73 1.73 0 00-.44 1.16v5.34h-4.5V9.768l8.25-7.425 8.25 7.422-.007 10.77z" fill="#2C2C2C"/></svg>