<svg width="26" height="24" fill="none" xmlns="http://www.w3.org/2000/svg"><path d="M13.002 0C5.822 0 .003 4.987.003 11.143c0 2.55 1.01 4.886 2.686 6.766-.756 2.11-2.33 3.9-2.356 3.921A1.34 1.34 0 00.1 23.223c.193.472.635.777 1.122.777 3.123 0 5.585-1.377 7.063-2.48 1.467.487 3.051.766 4.717.766 7.18 0 12.998-4.988 12.998-11.143C26 4.987 20.181 0 13.002 0zm0 19.714c-1.356 0-2.696-.22-3.981-.648l-1.153-.386-.99.74a10.715 10.715 0 01-2.92 1.553A13.75 13.75 0 004.97 18.82l.538-1.506-1.046-1.168c-.919-1.034-2.02-2.742-2.02-5.003C2.44 6.418 7.178 2.57 13 2.57c5.825 0 10.562 3.847 10.562 8.572s-4.737 8.571-10.561 8.571z" fill="#2C2C2C"/></svg>