<svg width="27" height="18" fill="none" xmlns="http://www.w3.org/2000/svg"><path d="M13.5 3.75a5.2 5.2 0 00-1.464.234c.22.386.336.822.339 1.266A2.625 2.625 0 019.75 7.875a2.597 2.597 0 01-1.266-.34A5.237 5.237 0 1013.5 3.75zm13.337 4.566C24.295 3.356 19.262 0 13.5 0S2.704 3.358.163 8.316a1.516 1.516 0 000 1.368C2.705 14.644 7.738 18 13.5 18s10.796-3.358 13.337-8.316a1.517 1.517 0 000-1.368zM13.5 15.75c-4.624 0-8.864-2.578-11.153-6.75C4.637 4.828 8.875 2.25 13.5 2.25c4.625 0 8.864 2.578 11.153 6.75-2.289 4.172-6.528 6.75-11.153 6.75z" fill="#2C2C2C"/></svg>