<svg width="28" height="20" fill="none" xmlns="http://www.w3.org/2000/svg"><path d="M25.375 0H2.625C1.175 0 0 1.12 0 2.5v15C0 18.88 1.175 20 2.625 20h22.75C26.825 20 28 18.88 28 17.5v-15C28 1.12 26.825 0 25.375 0zm0 2.5v2.125c-1.226.951-3.181 2.43-7.36 5.547-.921.69-2.746 2.347-4.015 2.328-1.27.02-3.094-1.639-4.015-2.328-4.178-3.117-6.134-4.596-7.36-5.547V2.5h22.75zm-22.75 15V7.833c1.253.95 3.03 2.285 5.739 4.305C9.559 13.034 11.652 15.012 14 15c2.336.012 4.403-1.938 5.636-2.862a924.672 924.672 0 005.739-4.305V17.5H2.625z" fill="#2C2C2C"/></svg>